<?xml version="1.0" encoding="UTF-8"?>
<!DOCTYPE svg PUBLIC "-//W3C//DTD SVG 1.1//EN" "http://www.w3.org/Graphics/SVG/1.1/DTD/svg11.dtd">
<svg xmlns="http://www.w3.org/2000/svg" version="1.1" width="578px" height="585px" style="shape-rendering:geometricPrecision; text-rendering:geometricPrecision; image-rendering:optimizeQuality; fill-rule:evenodd; clip-rule:evenodd" xmlns:xlink="http://www.w3.org/1999/xlink">
<g><path style="opacity:1" fill="#adffb0" d="M 184.5,-0.5 C 253.5,-0.5 322.5,-0.5 391.5,-0.5C 463.738,7.35522 517.905,42.6886 554,105.5C 556.729,110.288 558.896,115.288 560.5,120.5C 559.562,122.756 559.562,125.09 560.5,127.5C 528.381,56.8004 474.214,16.467 398,6.5C 392.583,5.69113 387.083,5.19113 381.5,5C 318.243,4.52203 255.41,4.35537 193,4.5C 102.094,12.3539 40.7605,59.3539 9,145.5C 6.4495,160.136 4.11617,174.803 2,189.5C 1.33333,255.5 1.33333,321.5 2,387.5C 2.19808,389.382 2.69808,391.048 3.5,392.5C 4.91924,403.516 6.58591,414.516 8.5,425.5C 9.18346,425.863 9.85013,426.196 10.5,426.5C 13.3065,435.338 15.8065,444.338 18,453.5C 25.4429,466.733 33.1096,479.733 41,492.5C 45.4655,497.191 49.7988,501.857 54,506.5C 56.2285,510.353 58.7285,514.02 61.5,517.5C 65.7129,520.424 69.3795,523.924 72.5,528C 78.2788,531.85 84.2788,535.016 90.5,537.5C 90.33,538.822 90.6634,539.989 91.5,541C 98.6348,545.07 105.635,549.403 112.5,554C 120.547,557.9 128.88,560.733 137.5,562.5C 137.47,563.497 137.97,564.164 139,564.5C 156.38,570.174 174.214,573.34 192.5,574C 256.833,574.667 321.167,574.667 385.5,574C 417.035,572.425 446.369,563.925 473.5,548.5C 476.576,545.251 480.243,542.917 484.5,541.5C 484.281,540.325 484.614,539.325 485.5,538.5C 489.691,535.236 494.358,532.736 499.5,531C 501.381,527.617 504.048,525.117 507.5,523.5C 514.11,517.728 520.61,511.728 527,505.5C 531.322,499.534 535.656,493.534 540,487.5C 541.615,486.614 543.115,485.614 544.5,484.5C 530.491,507.678 512.158,526.845 489.5,542C 488.743,543.512 487.743,544.846 486.5,546C 474.391,553.388 461.724,559.721 448.5,565C 443.138,564.688 438.805,566.521 435.5,570.5C 424.508,572.498 413.508,574.498 402.5,576.5C 329.499,576.667 256.499,576.5 183.5,576C 119.06,569.521 68.5602,539.688 32,486.5C 29.972,481.123 27.972,475.789 26,470.5C 20.8785,463.927 17.0451,456.593 14.5,448.5C 13.7579,447.713 12.9246,447.047 12,446.5C 10.3333,440.833 8.66667,435.167 7,429.5C 6.48672,430.527 5.98672,431.527 5.5,432.5C 2.85353,422.619 0.853532,412.619 -0.5,402.5C -0.5,328.833 -0.5,255.167 -0.5,181.5C 7.358,118.183 37.358,68.3496 89.5,32C 118.667,13.6672 150.333,2.83382 184.5,-0.5 Z"/></g>
<g><path style="opacity:1" fill="#aaffad" d="M 560.5,127.5 C 568.216,145.211 572.716,163.877 574,183.5C 574.667,253.5 574.667,323.5 574,393.5C 573.311,402.961 571.978,412.294 570,421.5C 569.276,425.427 568.109,429.094 566.5,432.5C 567.641,420.646 569.474,408.979 572,397.5C 572.667,325.833 572.667,254.167 572,182.5C 560.792,102.632 517.626,48.1317 442.5,19C 422.755,12.7173 402.589,8.884 382,7.5C 318.941,7.50313 255.941,7.50313 193,7.5C 112.611,13.6085 54.6109,52.6085 19,124.5C 11.6562,141.546 6.98955,159.213 5,177.5C 3.54297,249.15 3.04297,320.817 3.5,392.5C 2.69808,391.048 2.19808,389.382 2,387.5C 1.33333,321.5 1.33333,255.5 2,189.5C 4.11617,174.803 6.4495,160.136 9,145.5C 40.7605,59.3539 102.094,12.3539 193,4.5C 255.41,4.35537 318.243,4.52203 381.5,5C 387.083,5.19113 392.583,5.69113 398,6.5C 474.214,16.467 528.381,56.8004 560.5,127.5 Z"/></g>
<g><path style="opacity:1" fill="#a5ffa8" d="M 566.5,432.5 C 565.053,439.678 562.886,446.678 560,453.5C 555.524,462.106 551.358,470.772 547.5,479.5C 547.727,481.933 546.727,483.599 544.5,484.5C 543.115,485.614 541.615,486.614 540,487.5C 535.656,493.534 531.322,499.534 527,505.5C 520.61,511.728 514.11,517.728 507.5,523.5C 509.86,521.135 511.86,518.468 513.5,515.5C 516.091,513.62 518.591,511.62 521,509.5C 521.456,505.706 523.456,503.039 527,501.5C 528.559,499.783 529.392,497.783 529.5,495.5C 531.017,495.489 532.184,494.823 533,493.5C 535.444,490.011 537.61,486.344 539.5,482.5C 541.793,481.374 543.96,480.041 546,478.5C 547.853,473.4 549.853,468.4 552,463.5C 554.022,461.469 555.689,459.135 557,456.5C 558.478,450.014 560.478,443.681 563,437.5C 565.399,424.833 567.399,412.166 569,399.5C 570.103,333.472 570.937,267.472 571.5,201.5C 570.687,191.674 569.687,181.84 568.5,172C 566.609,163.743 564.609,155.576 562.5,147.5C 561.292,141.341 559.459,135.341 557,129.5C 551.328,118.156 545.662,106.823 540,95.5C 502.972,47.795 454.472,20.6284 394.5,14C 343.929,13.8309 293.429,13.3309 243,12.5C 222.906,13.3271 202.74,13.8271 182.5,14C 113.822,21.43 61.9886,54.5967 27,113.5C 11.6471,143.892 4.31372,176.225 5,210.5C 4.33333,271.833 4.33333,333.167 5,394.5C 5.27842,395.416 5.77842,396.082 6.5,396.5C 6.99278,406.616 8.32611,416.616 10.5,426.5C 9.85013,426.196 9.18346,425.863 8.5,425.5C 6.58591,414.516 4.91924,403.516 3.5,392.5C 3.04297,320.817 3.54297,249.15 5,177.5C 6.98955,159.213 11.6562,141.546 19,124.5C 54.6109,52.6085 112.611,13.6085 193,7.5C 255.941,7.50313 318.941,7.50313 382,7.5C 402.589,8.884 422.755,12.7173 442.5,19C 517.626,48.1317 560.792,102.632 572,182.5C 572.667,254.167 572.667,325.833 572,397.5C 569.474,408.979 567.641,420.646 566.5,432.5 Z"/></g>
<g><path style="opacity:1" fill="#a0ffa3" d="M 562.5,147.5 C 536.914,80.441 488.914,38.6077 418.5,22C 408.937,19.9296 399.271,18.5963 389.5,18C 322.167,17.3333 254.833,17.3333 187.5,18C 121.831,22.9013 70.6643,52.4013 34,106.5C 32.878,108.407 32.0447,110.407 31.5,112.5C 30.1943,113.968 28.6943,115.301 27,116.5C 22.6306,126.011 18.6306,135.678 15,145.5C 10.8314,159.173 8.16473,173.173 7,187.5C 6.82749,209.073 6.32749,230.573 5.5,252C 6.375,299.949 6.70833,348.116 6.5,396.5C 5.77842,396.082 5.27842,395.416 5,394.5C 4.33333,333.167 4.33333,271.833 5,210.5C 4.31372,176.225 11.6471,143.892 27,113.5C 61.9886,54.5967 113.822,21.43 182.5,14C 202.74,13.8271 222.906,13.3271 243,12.5C 293.429,13.3309 343.929,13.8309 394.5,14C 454.472,20.6284 502.972,47.795 540,95.5C 545.662,106.823 551.328,118.156 557,129.5C 559.459,135.341 561.292,141.341 562.5,147.5 Z"/></g>
<g><path style="opacity:1" fill="#9bff9e" d="M 562.5,147.5 C 564.609,155.576 566.609,163.743 568.5,172C 569.687,181.84 570.687,191.674 571.5,201.5C 570.937,267.472 570.103,333.472 569,399.5C 567.399,412.166 565.399,424.833 563,437.5C 560.478,443.681 558.478,450.014 557,456.5C 555.689,459.135 554.022,461.469 552,463.5C 549.853,468.4 547.853,473.4 546,478.5C 543.96,480.041 541.793,481.374 539.5,482.5C 537.61,486.344 535.444,490.011 533,493.5C 532.184,494.823 531.017,495.489 529.5,495.5C 532.653,491.181 535.153,486.514 537,481.5C 538,479.167 539.667,477.5 542,476.5C 545.144,468.044 548.977,459.877 553.5,452C 556.333,442 559.667,432.166 563.5,422.5C 564.993,415.222 566.16,407.889 567,400.5C 568.607,335.18 568.941,269.847 568,204.5C 567.713,194.472 567.046,184.472 566,174.5C 565.052,168.23 563.552,162.23 561.5,156.5C 555.206,130.245 543.373,106.911 526,86.5C 489.622,46.0629 444.122,23.8962 389.5,20C 322.167,19.3333 254.833,19.3333 187.5,20C 120.093,25.5125 68.093,56.3458 31.5,112.5C 32.0447,110.407 32.878,108.407 34,106.5C 70.6643,52.4013 121.831,22.9013 187.5,18C 254.833,17.3333 322.167,17.3333 389.5,18C 399.271,18.5963 408.937,19.9296 418.5,22C 488.914,38.6077 536.914,80.441 562.5,147.5 Z"/></g>
<g><path style="opacity:1" fill="#97ff9a" d="M 561.5,156.5 C 543.621,100.446 507.621,60.6132 453.5,37C 432.991,28.5395 411.657,23.5395 389.5,22C 322.167,21.3333 254.833,21.3333 187.5,22C 118.06,27.7731 65.5599,60.2731 30,119.5C 18.0515,142.015 11.3849,166.015 10,191.5C 9.33333,259.5 9.33333,327.5 10,395.5C 11.0859,404.521 12.2525,413.521 13.5,422.5C 12.0692,417.541 10.5692,412.541 9,407.5C 8.26785,387.172 7.76785,366.839 7.5,346.5C 7.60599,302.408 7.77265,258.074 8,213.5C 6.55852,177.908 14.3918,144.242 31.5,112.5C 68.093,56.3458 120.093,25.5125 187.5,20C 254.833,19.3333 322.167,19.3333 389.5,20C 444.122,23.8962 489.622,46.0629 526,86.5C 543.373,106.911 555.206,130.245 561.5,156.5 Z"/></g>
<g><path style="opacity:1" fill="#93ff96" d="M 561.5,156.5 C 563.552,162.23 565.052,168.23 566,174.5C 567.046,184.472 567.713,194.472 568,204.5C 568.941,269.847 568.607,335.18 567,400.5C 566.16,407.889 564.993,415.222 563.5,422.5C 559.667,432.166 556.333,442 553.5,452C 548.977,459.877 545.144,468.044 542,476.5C 539.667,477.5 538,479.167 537,481.5C 535.153,486.514 532.653,491.181 529.5,495.5C 519.06,505.108 509.06,515.274 499.5,526C 498.167,526.333 496.833,526.667 495.5,527C 490.524,531.487 485.191,535.487 479.5,539C 468.975,544.427 458.641,550.094 448.5,556C 430.484,562.629 411.984,567.129 393,569.5C 320.354,569.973 247.521,569.473 174.5,568C 140.798,562.302 110.464,549.302 83.5,529C 82.1667,528.667 80.8333,528.333 79.5,528C 70.0246,518.857 60.858,509.357 52,499.5C 33.3413,476.849 20.508,451.183 13.5,422.5C 12.2525,413.521 11.0859,404.521 10,395.5C 9.33333,327.5 9.33333,259.5 10,191.5C 11.3849,166.015 18.0515,142.015 30,119.5C 65.5599,60.2731 118.06,27.7731 187.5,22C 254.833,21.3333 322.167,21.3333 389.5,22C 411.657,23.5395 432.991,28.5395 453.5,37C 507.621,60.6132 543.621,100.446 561.5,156.5 Z"/></g>
<g><path style="opacity:1" fill="#8dff90" d="M 185.5,25.5 C 253.501,25.3333 321.501,25.5 389.5,26C 458.057,32.336 509.89,64.836 545,123.5C 556.378,144.964 562.878,167.798 564.5,192C 564.656,259.353 564.49,326.853 564,394.5C 561.338,429.996 549.505,461.996 528.5,490.5C 494.239,533.73 449.406,558.73 394,565.5C 393.667,565.167 393.333,564.833 393,564.5C 343.189,566.276 293.356,566.943 243.5,566.5C 223.17,565.884 202.836,565.384 182.5,565C 113.752,556.85 63.0849,522.683 30.5,462.5C 19.4917,440.135 13.325,416.468 12,391.5C 11.0722,319.823 11.4056,248.156 13,176.5C 24.9636,117.87 57.4636,74.7033 110.5,47C 134.314,35.3002 159.314,28.1335 185.5,25.5 Z"/></g>
<g><path style="opacity:1" fill="#8aff8e" d="M 562.5,296.5 C 561.668,263.336 561.168,230.003 561,196.5C 559.146,161.429 547.146,130.096 525,102.5C 491.801,61.6466 448.968,38.1466 396.5,32C 329.18,30.3908 261.847,30.0574 194.5,31C 117.986,35.8942 62.4859,72.3942 28,140.5C 19.6289,159.975 15.2956,180.641 15,202.5C 14.524,264.56 14.3573,326.227 14.5,387.5C 15.1272,390.702 15.7939,393.869 16.5,397C 16.4242,401.326 16.4242,405.492 16.5,409.5C 15.3834,404.45 14.3834,399.283 13.5,394C 13.341,327.707 13.5077,261.207 14,194.5C 17.9442,143.803 40.1108,102.303 80.5,70C 111.868,45.4968 147.535,31.8301 187.5,29C 254.833,28.3333 322.167,28.3333 389.5,29C 456.344,35.2696 507.178,66.7696 542,123.5C 554.14,144.918 560.806,167.918 562,192.5C 562.176,206.075 562.676,219.575 563.5,233C 562.51,253.928 562.176,275.095 562.5,296.5 Z"/></g>
<g><path style="opacity:1" fill="#86ff8a" d="M 562.5,296.5 C 562.118,312.642 562.118,328.809 562.5,345C 569.713,422.193 542.713,483.86 481.5,530C 451.631,550.057 418.631,560.723 382.5,562C 318.833,562.667 255.167,562.667 191.5,562C 118.89,556.275 65.7232,521.109 32,456.5C 24.8274,441.469 19.6607,425.802 16.5,409.5C 16.4242,405.492 16.4242,401.326 16.5,397C 15.7939,393.869 15.1272,390.702 14.5,387.5C 14.3573,326.227 14.524,264.56 15,202.5C 15.2956,180.641 19.6289,159.975 28,140.5C 62.4859,72.3942 117.986,35.8942 194.5,31C 261.847,30.0574 329.18,30.3908 396.5,32C 448.968,38.1466 491.801,61.6466 525,102.5C 547.146,130.096 559.146,161.429 561,196.5C 561.168,230.003 561.668,263.336 562.5,296.5 Z"/></g>
<g><path style="opacity:0.978" fill="#b1ffb3" d="M 560.5,120.5 C 570.256,142.857 575.923,166.19 577.5,190.5C 577.5,258.167 577.5,325.833 577.5,393.5C 575.986,416.734 570.653,439.067 561.5,460.5C 561.141,458.515 560.308,457.849 559,458.5C 556.558,466.385 552.725,473.385 547.5,479.5C 551.358,470.772 555.524,462.106 560,453.5C 562.886,446.678 565.053,439.678 566.5,432.5C 568.109,429.094 569.276,425.427 570,421.5C 571.978,412.294 573.311,402.961 574,393.5C 574.667,323.5 574.667,253.5 574,183.5C 572.716,163.877 568.216,145.211 560.5,127.5C 559.562,125.09 559.562,122.756 560.5,120.5 Z"/></g>
<g><path style="opacity:1" fill="#f4fff4" d="M 227.5,357.5 C 224.072,357.453 221.072,356.287 218.5,354C 202.3,337.469 186.467,320.635 171,303.5C 165.429,297.258 159.262,291.758 152.5,287C 132.131,277.908 115.631,282.408 103,300.5C 96.2687,316.906 98.9354,331.572 111,344.5C 144.167,372.333 177.333,400.167 210.5,428C 223.618,436.818 236.284,436.151 248.5,426C 323.61,355.226 398.443,284.06 473,212.5C 485.304,194.435 483.804,177.602 468.5,162C 452.758,152.048 437.425,152.714 422.5,164C 362.833,226.333 303.167,288.667 243.5,351C 239.678,354.662 235.178,357.162 230,358.5C 229.235,358.43 228.735,358.097 228.5,357.5C 235.744,351.762 242.577,345.428 249,338.5C 306.5,278.333 364,218.167 421.5,158C 442.354,144.991 461.521,147.158 479,164.5C 492.711,186.969 489.877,207.136 470.5,225C 396.5,295 322.5,365 248.5,435C 236.282,444.155 223.616,444.822 210.5,437C 173.721,406.189 137.221,375.022 101,343.5C 87.9053,322.563 90.072,303.396 107.5,286C 122.32,275.015 137.986,273.682 154.5,282C 160.928,286.423 166.761,291.59 172,297.5C 190.728,317.39 209.228,337.39 227.5,357.5 Z"/></g>
<g><path style="opacity:1" fill="#fefffe" d="M 227.5,357.5 C 227.833,357.5 228.167,357.5 228.5,357.5C 228.735,358.097 229.235,358.43 230,358.5C 235.178,357.162 239.678,354.662 243.5,351C 303.167,288.667 362.833,226.333 422.5,164C 437.425,152.714 452.758,152.048 468.5,162C 483.804,177.602 485.304,194.435 473,212.5C 398.443,284.06 323.61,355.226 248.5,426C 236.284,436.151 223.618,436.818 210.5,428C 177.333,400.167 144.167,372.333 111,344.5C 98.9354,331.572 96.2687,316.906 103,300.5C 115.631,282.408 132.131,277.908 152.5,287C 159.262,291.758 165.429,297.258 171,303.5C 186.467,320.635 202.3,337.469 218.5,354C 221.072,356.287 224.072,357.453 227.5,357.5 Z"/></g>
<g><path style="opacity:1" fill="#bbffbd" d="M 561.5,460.5 C 554.212,479.758 543.879,497.091 530.5,512.5C 529.883,512.389 529.383,512.056 529,511.5C 503.555,540.46 472.389,560.126 435.5,570.5C 438.805,566.521 443.138,564.688 448.5,565C 461.724,559.721 474.391,553.388 486.5,546C 487.743,544.846 488.743,543.512 489.5,542C 512.158,526.845 530.491,507.678 544.5,484.5C 546.727,483.599 547.727,481.933 547.5,479.5C 552.725,473.385 556.558,466.385 559,458.5C 560.308,457.849 561.141,458.515 561.5,460.5 Z"/></g>
<g><path style="opacity:1" fill="#9cff9f" d="M 31.5,112.5 C 14.3918,144.242 6.55852,177.908 8,213.5C 7.77265,258.074 7.60599,302.408 7.5,346.5C 7.76785,366.839 8.26785,387.172 9,407.5C 10.5692,412.541 12.0692,417.541 13.5,422.5C 20.508,451.183 33.3413,476.849 52,499.5C 60.858,509.357 70.0246,518.857 79.5,528C 80.8333,528.333 82.1667,528.667 83.5,529C 110.464,549.302 140.798,562.302 174.5,568C 247.521,569.473 320.354,569.973 393,569.5C 411.984,567.129 430.484,562.629 448.5,556C 458.641,550.094 468.975,544.427 479.5,539C 485.191,535.487 490.524,531.487 495.5,527C 496.833,526.667 498.167,526.333 499.5,526C 509.06,515.274 519.06,505.108 529.5,495.5C 529.392,497.783 528.559,499.783 527,501.5C 523.456,503.039 521.456,505.706 521,509.5C 518.591,511.62 516.091,513.62 513.5,515.5C 511.86,518.468 509.86,521.135 507.5,523.5C 504.048,525.117 501.381,527.617 499.5,531C 494.358,532.736 489.691,535.236 485.5,538.5C 484.614,539.325 484.281,540.325 484.5,541.5C 480.243,542.917 476.576,545.251 473.5,548.5C 459.078,553.941 444.745,559.441 430.5,565C 418.104,568.733 405.437,570.733 392.5,571C 320.167,571.667 247.833,571.667 175.5,571C 162.793,568.329 150.127,565.495 137.5,562.5C 128.88,560.733 120.547,557.9 112.5,554C 105.635,549.403 98.6348,545.07 91.5,541C 90.6634,539.989 90.33,538.822 90.5,537.5C 84.2788,535.016 78.2788,531.85 72.5,528C 69.3795,523.924 65.7129,520.424 61.5,517.5C 58.7285,514.02 56.2285,510.353 54,506.5C 49.7988,501.857 45.4655,497.191 41,492.5C 33.1096,479.733 25.4429,466.733 18,453.5C 15.8065,444.338 13.3065,435.338 10.5,426.5C 8.32611,416.616 6.99278,406.616 6.5,396.5C 6.70833,348.116 6.375,299.949 5.5,252C 6.32749,230.573 6.82749,209.073 7,187.5C 8.16473,173.173 10.8314,159.173 15,145.5C 18.6306,135.678 22.6306,126.011 27,116.5C 28.6943,115.301 30.1943,113.968 31.5,112.5 Z"/></g>
<g><path style="opacity:1" fill="#c4ffc5" d="M 43.5,508.5 C 50.5573,515.055 57.5573,521.888 64.5,529C 86.5167,547.854 111.517,561.854 139.5,571C 141.134,571.494 142.801,571.66 144.5,571.5C 145.842,572.793 147.509,573.626 149.5,574C 163.033,576.854 176.699,578.854 190.5,580C 255.833,580.667 321.167,580.667 386.5,580C 403.482,579.396 419.815,576.229 435.5,570.5C 472.389,560.126 503.555,540.46 529,511.5C 529.383,512.056 529.883,512.389 530.5,512.5C 503.343,544.611 469.343,566.277 428.5,577.5C 427.359,576.661 426.026,575.994 424.5,575.5C 413.381,578.474 402.048,580.308 390.5,581C 322.5,581.667 254.5,581.667 186.5,581C 180.487,580.642 174.487,580.142 168.5,579.5C 166.955,579.511 165.622,579.844 164.5,580.5C 118.636,572.321 80.1365,550.988 49,516.5C 46.9205,513.935 45.0872,511.268 43.5,508.5 Z"/></g>
<g><path style="opacity:1" fill="#a3ffa7" d="M 473.5,548.5 C 446.369,563.925 417.035,572.425 385.5,574C 321.167,574.667 256.833,574.667 192.5,574C 174.214,573.34 156.38,570.174 139,564.5C 137.97,564.164 137.47,563.497 137.5,562.5C 150.127,565.495 162.793,568.329 175.5,571C 247.833,571.667 320.167,571.667 392.5,571C 405.437,570.733 418.104,568.733 430.5,565C 444.745,559.441 459.078,553.941 473.5,548.5 Z"/></g>
<g><path style="opacity:0.962" fill="#c9ffcb" d="M 428.5,577.5 C 413.585,581.235 398.585,583.569 383.5,584.5C 319.833,584.5 256.167,584.5 192.5,584.5C 183.084,583.823 173.75,582.489 164.5,580.5C 165.622,579.844 166.955,579.511 168.5,579.5C 174.487,580.142 180.487,580.642 186.5,581C 254.5,581.667 322.5,581.667 390.5,581C 402.048,580.308 413.381,578.474 424.5,575.5C 426.026,575.994 427.359,576.661 428.5,577.5 Z"/></g>
<g><path style="opacity:1" fill="#bdffbf" d="M 435.5,570.5 C 419.815,576.229 403.482,579.396 386.5,580C 321.167,580.667 255.833,580.667 190.5,580C 176.699,578.854 163.033,576.854 149.5,574C 147.509,573.626 145.842,572.793 144.5,571.5C 157.78,573.993 171.113,576.16 184.5,578C 254.167,578.667 323.833,578.667 393.5,578C 396.695,577.819 399.695,577.319 402.5,576.5C 413.508,574.498 424.508,572.498 435.5,570.5 Z"/></g>
<g><path style="opacity:1" fill="#b7ffba" d="M 402.5,576.5 C 399.695,577.319 396.695,577.819 393.5,578C 323.833,578.667 254.167,578.667 184.5,578C 171.113,576.16 157.78,573.993 144.5,571.5C 142.801,571.66 141.134,571.494 139.5,571C 111.517,561.854 86.5167,547.854 64.5,529C 57.5573,521.888 50.5573,515.055 43.5,508.5C 28.7764,491.075 17.6097,471.409 10,449.5C 8.18778,443.9 6.68778,438.233 5.5,432.5C 5.98672,431.527 6.48672,430.527 7,429.5C 8.66667,435.167 10.3333,440.833 12,446.5C 12.9246,447.047 13.7579,447.713 14.5,448.5C 17.0451,456.593 20.8785,463.927 26,470.5C 27.972,475.789 29.972,481.123 32,486.5C 68.5602,539.688 119.06,569.521 183.5,576C 256.499,576.5 329.499,576.667 402.5,576.5 Z"/></g>
</svg>
