<?xml version="1.0" encoding="UTF-8"?>
<!DOCTYPE svg PUBLIC "-//W3C//DTD SVG 1.1//EN" "http://www.w3.org/Graphics/SVG/1.1/DTD/svg11.dtd">
<svg xmlns="http://www.w3.org/2000/svg" version="1.1" width="3557px" height="1427px" style="shape-rendering:geometricPrecision; text-rendering:geometricPrecision; image-rendering:optimizeQuality; fill-rule:evenodd; clip-rule:evenodd" xmlns:xlink="http://www.w3.org/1999/xlink">
<g><path style="opacity:0.999" fill="#38ff9b" d="M 959.5,160.5 C 910.005,162.433 862.672,173.6 817.5,194C 727.628,239.515 678.462,312.682 670,413.5C 664,540.023 718.166,629.523 832.5,682C 879.418,700.283 928.085,709.116 978.5,708.5C 1041.21,709.497 1100.21,695.33 1155.5,666C 1235.1,619.04 1278.93,549.206 1287,456.5C 1293.89,367.183 1264.39,292.683 1198.5,233C 1160.04,201.607 1116.37,180.607 1067.5,170C 1043.85,165.586 1020.18,162.42 996.5,160.5C 1832.83,160.5 2669.17,160.5 3505.5,160.5C 3505.5,349.833 3505.5,539.167 3505.5,728.5C 3406.15,728.035 3306.82,728.535 3207.5,730C 3138.29,734.63 3076.96,758.63 3023.5,802C 2960.24,859.747 2932.74,931.581 2941,1017.5C 2949.43,1097.57 2987.27,1159.4 3054.5,1203C 3101.42,1231.75 3152.42,1248.08 3207.5,1252C 3306.82,1253.47 3406.15,1253.97 3505.5,1253.5C 3505.5,1257.17 3505.5,1260.83 3505.5,1264.5C 3207,1264.83 2908.67,1264.5 2610.5,1263.5C 2672.15,1260.12 2728.49,1241.28 2779.5,1207C 2850.66,1152.84 2886.33,1080.67 2886.5,990.5C 2884.48,877.873 2833.14,797.04 2732.5,748C 2682.42,726.651 2630.08,716.484 2575.5,717.5C 2499.34,715.609 2430.34,736.442 2368.5,780C 2309.64,826.542 2276.47,887.376 2269,962.5C 2260.95,1042.06 2282.95,1111.73 2335,1171.5C 2383.64,1220.74 2442.47,1250.24 2511.5,1260C 2522.11,1261.74 2532.78,1262.9 2543.5,1263.5C 1712.83,1264.17 882.167,1264.83 51.5,1265.5C 50.5003,1076.33 50.167,887.001 50.5,697.5C 146.18,697.961 241.847,697.461 337.5,696C 393.993,693.711 446.66,678.378 495.5,650C 575.458,599.617 615.458,526.784 615.5,431.5C 613.883,341.742 575.883,272.242 501.5,223C 454.194,194.455 402.861,178.122 347.5,174C 248.514,172.535 149.514,172.035 50.5,172.5C 50.5,168.5 50.5,164.5 50.5,160.5C 353.5,160.5 656.5,160.5 959.5,160.5 Z"/></g>
<g><path style="opacity:1" fill="#1fff8f" d="M 959.5,160.5 C 971.833,160.5 984.167,160.5 996.5,160.5C 1020.18,162.42 1043.85,165.586 1067.5,170C 1116.37,180.607 1160.04,201.607 1198.5,233C 1264.39,292.683 1293.89,367.183 1287,456.5C 1278.93,549.206 1235.1,619.04 1155.5,666C 1100.21,695.33 1041.21,709.497 978.5,708.5C 928.085,709.116 879.418,700.283 832.5,682C 718.166,629.523 664,540.023 670,413.5C 678.462,312.682 727.628,239.515 817.5,194C 862.672,173.6 910.005,162.433 959.5,160.5 Z"/></g>
<g><path style="opacity:1" fill="#30ff97" d="M 1809.5,172.5 C 1852.33,171.501 1895.33,171.168 1938.5,171.5C 1938.5,346.833 1938.5,522.167 1938.5,697.5C 1882.33,697.832 1826.33,697.499 1770.5,696.5C 1826.17,696.5 1881.83,696.5 1937.5,696.5C 1937.5,521.833 1937.5,347.167 1937.5,172.5C 1895.17,172.5 1852.83,172.5 1810.5,172.5C 1810.17,172.5 1809.83,172.5 1809.5,172.5 Z"/></g>
<g><path style="opacity:1" fill="#2fff96" d="M 2500.5,172.5 C 2341.83,172.5 2183.17,172.5 2024.5,172.5C 2024.5,173.5 2024.5,174.5 2024.5,175.5C 2023.57,174.432 2023.23,173.099 2023.5,171.5C 2182.67,171.167 2341.67,171.5 2500.5,172.5 Z"/></g>
<g><path style="opacity:1" fill="#30ff97" d="M 2899.5,172.5 C 2855.5,172.5 2811.5,172.5 2767.5,172.5C 2767.5,347.167 2767.5,521.833 2767.5,696.5C 2811.5,696.5 2855.5,696.5 2899.5,696.5C 2855.34,697.499 2811,697.832 2766.5,697.5C 2766.5,522.167 2766.5,346.833 2766.5,171.5C 2811,171.168 2855.34,171.501 2899.5,172.5 Z"/></g>
<g><path style="opacity:1" fill="#2eff96" d="M 3504.5,172.5 C 3324.17,172.5 3143.83,172.5 2963.5,172.5C 2963.5,211.167 2963.5,249.833 2963.5,288.5C 3031.67,288.167 3099.67,288.501 3167.5,289.5C 3099.17,289.5 3030.83,289.5 2962.5,289.5C 2962.5,250.167 2962.5,210.833 2962.5,171.5C 3143.33,171.167 3324,171.5 3504.5,172.5 Z"/></g>
<g><path style="opacity:1" fill="#1fff8f" d="M 50.5,172.5 C 149.514,172.035 248.514,172.535 347.5,174C 402.861,178.122 454.194,194.455 501.5,223C 575.883,272.242 613.883,341.742 615.5,431.5C 615.458,526.784 575.458,599.617 495.5,650C 446.66,678.378 393.993,693.711 337.5,696C 241.847,697.461 146.18,697.961 50.5,697.5C 50.5,522.5 50.5,347.5 50.5,172.5 Z"/></g>
<g><path style="opacity:1" fill="#29ff93" d="M 1537.5,172.5 C 1480.5,172.5 1423.5,172.5 1366.5,172.5C 1366.5,347.167 1366.5,521.833 1366.5,696.5C 1408.83,696.5 1451.17,696.5 1493.5,696.5C 1493.5,696.833 1493.5,697.167 1493.5,697.5C 1450.83,697.5 1408.17,697.5 1365.5,697.5C 1365.5,522.167 1365.5,346.833 1365.5,171.5C 1423,171.168 1480.34,171.501 1537.5,172.5 Z"/></g>
<g><path style="opacity:1" fill="#1fff8f" d="M 1537.5,172.5 C 1627.83,297.167 1718.17,421.833 1808.5,546.5C 1808.56,547.043 1808.89,547.376 1809.5,547.5C 1810.5,422.502 1810.83,297.502 1810.5,172.5C 1852.83,172.5 1895.17,172.5 1937.5,172.5C 1937.5,347.167 1937.5,521.833 1937.5,696.5C 1881.83,696.5 1826.17,696.5 1770.5,696.5C 1678.59,569.677 1586.92,442.677 1495.5,315.5C 1495.44,314.957 1495.11,314.624 1494.5,314.5C 1493.5,441.832 1493.17,569.165 1493.5,696.5C 1451.17,696.5 1408.83,696.5 1366.5,696.5C 1366.5,521.833 1366.5,347.167 1366.5,172.5C 1423.5,172.5 1480.5,172.5 1537.5,172.5 Z"/></g>
<g><path style="opacity:1" fill="#22ff90" d="M 1809.5,172.5 C 1809.83,172.5 1810.17,172.5 1810.5,172.5C 1810.83,297.502 1810.5,422.502 1809.5,547.5C 1808.89,547.376 1808.56,547.043 1808.5,546.5C 1809.5,422.001 1809.83,297.334 1809.5,172.5 Z"/></g>
<g><path style="opacity:1" fill="#1fff8f" d="M 2500.5,172.5 C 2500.5,208.5 2500.5,244.5 2500.5,280.5C 2389.17,280.5 2277.83,280.5 2166.5,280.5C 2171.83,314.499 2177.17,348.499 2182.5,382.5C 2182.5,383.833 2182.5,385.167 2182.5,386.5C 2282.17,386.5 2381.83,386.5 2481.5,386.5C 2481.5,418.833 2481.5,451.167 2481.5,483.5C 2381.83,483.5 2282.17,483.5 2182.5,483.5C 2182.5,484.833 2182.5,486.167 2182.5,487.5C 2176.73,521.429 2171.4,555.429 2166.5,589.5C 2278.83,589.5 2391.17,589.5 2503.5,589.5C 2503.5,625.167 2503.5,660.833 2503.5,696.5C 2343.83,696.5 2184.17,696.5 2024.5,696.5C 2024.5,695.167 2024.5,693.833 2024.5,692.5C 2037.62,606.474 2050.95,520.474 2064.5,434.5C 2050.92,348.198 2037.59,261.864 2024.5,175.5C 2024.5,174.5 2024.5,173.5 2024.5,172.5C 2183.17,172.5 2341.83,172.5 2500.5,172.5 Z"/></g>
<g><path style="opacity:1" fill="#1fff8e" d="M 2899.5,172.5 C 2899.5,347.167 2899.5,521.833 2899.5,696.5C 2855.5,696.5 2811.5,696.5 2767.5,696.5C 2767.5,521.833 2767.5,347.167 2767.5,172.5C 2811.5,172.5 2855.5,172.5 2899.5,172.5 Z"/></g>
<g><path style="opacity:1" fill="#1fff8f" d="M 3504.5,172.5 C 3504.5,211.167 3504.5,249.833 3504.5,288.5C 3436.17,288.5 3367.83,288.5 3299.5,288.5C 3299.5,424.5 3299.5,560.5 3299.5,696.5C 3255.5,696.5 3211.5,696.5 3167.5,696.5C 3167.5,560.833 3167.5,425.167 3167.5,289.5C 3099.67,288.501 3031.67,288.167 2963.5,288.5C 2963.5,249.833 2963.5,211.167 2963.5,172.5C 3143.83,172.5 3324.17,172.5 3504.5,172.5 Z"/></g>
<g><path style="opacity:1" fill="#38ff9b" d="M 954.5,279.5 C 988.572,277.282 1021.91,281.116 1054.5,291C 1112.44,311.998 1145.27,353.164 1153,414.5C 1157.71,455.624 1148.71,493.291 1126,527.5C 1108.68,550.48 1086.52,566.98 1059.5,577C 1021.72,589.375 983.058,593.042 943.5,588C 897.711,583.526 860.211,563.692 831,528.5C 814.34,504.857 805.006,478.524 803,449.5C 798.354,364.231 836.854,309.731 918.5,286C 930.529,283.248 942.529,281.082 954.5,279.5 Z"/></g>
<g><path style="opacity:1" fill="#38ff9b" d="M 182.5,289.5 C 234.501,289.333 286.501,289.5 338.5,290C 382.516,292.764 419.683,309.931 450,341.5C 475.499,373.691 485.833,410.357 481,451.5C 475.4,502.227 449.9,539.06 404.5,562C 384.602,571.559 363.602,577.225 341.5,579C 288.517,580.436 235.517,580.936 182.5,580.5C 182.5,483.5 182.5,386.5 182.5,289.5 Z"/></g>
<g><path style="opacity:1" fill="#2dff96" d="M 3504.5,288.5 C 3436.67,289.499 3368.67,289.833 3300.5,289.5C 3300.5,425.5 3300.5,561.5 3300.5,697.5C 3256,697.832 3211.66,697.499 3167.5,696.5C 3211.5,696.5 3255.5,696.5 3299.5,696.5C 3299.5,560.5 3299.5,424.5 3299.5,288.5C 3367.83,288.5 3436.17,288.5 3504.5,288.5 Z"/></g>
<g><path style="opacity:1" fill="#2cff95" d="M 1495.5,315.5 C 1494.83,442.833 1494.17,570.167 1493.5,697.5C 1493.5,697.167 1493.5,696.833 1493.5,696.5C 1493.17,569.165 1493.5,441.832 1494.5,314.5C 1495.11,314.624 1495.44,314.957 1495.5,315.5 Z"/></g>
<g><path style="opacity:1" fill="#22ff90" d="M 2182.5,382.5 C 2183.4,383.209 2183.74,384.209 2183.5,385.5C 2283,385.167 2382.33,385.501 2481.5,386.5C 2381.83,386.5 2282.17,386.5 2182.5,386.5C 2182.5,385.167 2182.5,383.833 2182.5,382.5 Z"/></g>
<g><path style="opacity:1" fill="#34ff99" d="M 2481.5,483.5 C 2382.33,484.499 2283,484.833 2183.5,484.5C 2183.74,485.791 2183.4,486.791 2182.5,487.5C 2182.5,486.167 2182.5,484.833 2182.5,483.5C 2282.17,483.5 2381.83,483.5 2481.5,483.5 Z"/></g>
<g><path style="opacity:1" fill="#28ff94" d="M 2503.5,589.5 C 2504.5,625.329 2504.83,661.329 2504.5,697.5C 2344.17,697.5 2183.83,697.5 2023.5,697.5C 2023.22,695.585 2023.55,693.919 2024.5,692.5C 2024.5,693.833 2024.5,695.167 2024.5,696.5C 2184.17,696.5 2343.83,696.5 2503.5,696.5C 2503.5,660.833 2503.5,625.167 2503.5,589.5 Z"/></g>
<g><path style="opacity:1" fill="#1fff8f" d="M 2610.5,1263.5 C 2600.99,1263.74 2591.65,1264.41 2582.5,1265.5C 2578.83,1265.5 2575.17,1265.5 2571.5,1265.5C 2562.32,1264.72 2552.98,1264.06 2543.5,1263.5C 2532.78,1262.9 2522.11,1261.74 2511.5,1260C 2442.47,1250.24 2383.64,1220.74 2335,1171.5C 2282.95,1111.73 2260.95,1042.06 2269,962.5C 2276.47,887.376 2309.64,826.542 2368.5,780C 2430.34,736.442 2499.34,715.609 2575.5,717.5C 2630.08,716.484 2682.42,726.651 2732.5,748C 2833.14,797.04 2884.48,877.873 2886.5,990.5C 2886.33,1080.67 2850.66,1152.84 2779.5,1207C 2728.49,1241.28 2672.15,1260.12 2610.5,1263.5 Z"/></g>
<g><path style="opacity:1" fill="#1fff8f" d="M 255.5,728.5 C 299.5,728.5 343.5,728.5 387.5,728.5C 387.5,864.5 387.5,1000.5 387.5,1136.5C 455.833,1136.5 524.167,1136.5 592.5,1136.5C 592.5,1175.5 592.5,1214.5 592.5,1253.5C 412.167,1253.5 231.833,1253.5 51.5,1253.5C 51.5,1214.5 51.5,1175.5 51.5,1136.5C 119.5,1136.5 187.5,1136.5 255.5,1136.5C 255.5,1000.5 255.5,864.5 255.5,728.5 Z"/></g>
<g><path style="opacity:1" fill="#1fff8f" d="M 655.5,728.5 C 699.833,728.5 744.167,728.5 788.5,728.5C 788.5,903.5 788.5,1078.5 788.5,1253.5C 744.167,1253.5 699.833,1253.5 655.5,1253.5C 655.5,1078.5 655.5,903.5 655.5,728.5 Z"/></g>
<g><path style="opacity:1" fill="#1fff8f" d="M 1055.5,1253.5 C 1055.5,1217.83 1055.5,1182.17 1055.5,1146.5C 1166.83,1146.5 1278.17,1146.5 1389.5,1146.5C 1389.74,1145.21 1389.4,1144.21 1388.5,1143.5C 1383.06,1109.19 1377.73,1074.86 1372.5,1040.5C 1273.33,1039.5 1174,1039.17 1074.5,1039.5C 1074.5,1007.17 1074.5,974.833 1074.5,942.5C 1174,942.833 1273.33,942.499 1372.5,941.5C 1377.62,908.122 1382.95,874.788 1388.5,841.5C 1389.46,839.735 1389.79,837.735 1389.5,835.5C 1276.83,835.5 1164.17,835.5 1051.5,835.5C 1051.5,799.833 1051.5,764.167 1051.5,728.5C 1211.5,728.5 1371.5,728.5 1531.5,728.5C 1517.98,815.46 1504.65,902.46 1491.5,989.5C 1504.84,1077.51 1518.17,1165.51 1531.5,1253.5C 1372.83,1253.5 1214.17,1253.5 1055.5,1253.5 Z"/></g>
<g><path style="opacity:1" fill="#1fff8f" d="M 1747.5,880.5 C 1747.22,879.711 1746.72,879.044 1746,878.5C 1745.5,1003.5 1745.33,1128.5 1745.5,1253.5C 1702.83,1253.5 1660.17,1253.5 1617.5,1253.5C 1617.5,1078.5 1617.5,903.5 1617.5,728.5C 1673.17,728.333 1728.83,728.5 1784.5,729C 1876.79,856.412 1968.96,983.912 2061,1111.5C 2061.5,983.834 2061.67,856.167 2061.5,728.5C 2104.17,728.5 2146.83,728.5 2189.5,728.5C 2189.5,903.5 2189.5,1078.5 2189.5,1253.5C 2132.17,1253.67 2074.83,1253.5 2017.5,1253C 1927.6,1128.68 1837.6,1004.51 1747.5,880.5 Z"/></g>
<g><path style="opacity:0.998" fill="#1fff8f" d="M 3505.5,728.5 C 3505.5,903.5 3505.5,1078.5 3505.5,1253.5C 3406.15,1253.97 3306.82,1253.47 3207.5,1252C 3152.42,1248.08 3101.42,1231.75 3054.5,1203C 2987.27,1159.4 2949.43,1097.57 2941,1017.5C 2932.74,931.581 2960.24,859.747 3023.5,802C 3076.96,758.63 3138.29,734.63 3207.5,730C 3306.82,728.535 3406.15,728.035 3505.5,728.5 Z"/></g>
<g><path style="opacity:1" fill="#22ff90" d="M 1051.5,835.5 C 1164.17,835.5 1276.83,835.5 1389.5,835.5C 1389.79,837.735 1389.46,839.735 1388.5,841.5C 1388.5,839.833 1388.5,838.167 1388.5,836.5C 1276,836.833 1163.67,836.5 1051.5,835.5 Z"/></g>
<g><path style="opacity:1" fill="#38ff9b" d="M 2558.5,835.5 C 2593.8,833.736 2628.14,838.569 2661.5,850C 2715.6,873.003 2745.77,913.836 2752,972.5C 2755.52,1005.4 2750.18,1036.73 2736,1066.5C 2714.24,1104.23 2682.07,1128.4 2639.5,1139C 2590.9,1150.63 2542.9,1148.63 2495.5,1133C 2438.97,1109.85 2407.8,1067.68 2402,1006.5C 2397.22,954.152 2413.72,909.986 2451.5,874C 2469.67,858.917 2490.33,848.584 2513.5,843C 2528.5,839.655 2543.5,837.155 2558.5,835.5 Z"/></g>
<g><path style="opacity:1" fill="#38ff9b" d="M 3218.5,845.5 C 3270.17,845.5 3321.83,845.5 3373.5,845.5C 3373.5,942.5 3373.5,1039.5 3373.5,1136.5C 3321.83,1136.67 3270.17,1136.5 3218.5,1136C 3173.56,1133.44 3135.73,1115.94 3105,1083.5C 3078.8,1049.21 3068.8,1010.55 3075,967.5C 3083.31,916.518 3111.15,880.685 3158.5,860C 3178.01,852.542 3198.01,847.708 3218.5,845.5 Z"/></g>
<g><path style="opacity:1" fill="#32ff99" d="M 1747.5,880.5 C 1746.83,1004.83 1746.17,1129.17 1745.5,1253.5C 1745.33,1128.5 1745.5,1003.5 1746,878.5C 1746.72,879.044 1747.22,879.711 1747.5,880.5 Z"/></g>
<g><path style="opacity:1" fill="#2aff94" d="M 1372.5,941.5 C 1273.33,942.499 1174,942.833 1074.5,942.5C 1074.5,974.833 1074.5,1007.17 1074.5,1039.5C 1174,1039.17 1273.33,1039.5 1372.5,1040.5C 1272.83,1040.5 1173.17,1040.5 1073.5,1040.5C 1073.5,1007.5 1073.5,974.5 1073.5,941.5C 1173.17,941.5 1272.83,941.5 1372.5,941.5 Z"/></g>
<g><path style="opacity:1" fill="#26ff92" d="M 1388.5,1143.5 C 1389.4,1144.21 1389.74,1145.21 1389.5,1146.5C 1278.17,1146.5 1166.83,1146.5 1055.5,1146.5C 1055.5,1182.17 1055.5,1217.83 1055.5,1253.5C 1054.5,1217.67 1054.17,1181.67 1054.5,1145.5C 1166.17,1146.16 1277.5,1145.5 1388.5,1143.5 Z"/></g>
<g><path style="opacity:0.377" fill="#37ff99" d="M 2543.5,1263.5 C 2552.98,1264.06 2562.32,1264.72 2571.5,1265.5C 1731.5,1265.5 891.5,1265.5 51.5,1265.5C 882.167,1264.83 1712.83,1264.17 2543.5,1263.5 Z"/></g>
<g><path style="opacity:0.378" fill="#37ff99" d="M 2610.5,1263.5 C 2908.67,1264.5 3207,1264.83 3505.5,1264.5C 3198,1265.5 2890.33,1265.83 2582.5,1265.5C 2591.65,1264.41 2600.99,1263.74 2610.5,1263.5 Z"/></g>
</svg>
