<?xml version="1.0" encoding="UTF-8"?>
<!DOCTYPE svg PUBLIC "-//W3C//DTD SVG 1.1//EN" "http://www.w3.org/Graphics/SVG/1.1/DTD/svg11.dtd">
<svg xmlns="http://www.w3.org/2000/svg" version="1.1" width="804px" height="650px" style="shape-rendering:geometricPrecision; text-rendering:geometricPrecision; image-rendering:optimizeQuality; fill-rule:evenodd; clip-rule:evenodd" xmlns:xlink="http://www.w3.org/1999/xlink">
<g><path style="opacity:0.995" fill="#b8d9ff" d="M 704.5,-0.5 C 713.167,-0.5 721.833,-0.5 730.5,-0.5C 770.923,8.25657 795.256,32.9232 803.5,73.5C 803.5,81.1667 803.5,88.8333 803.5,96.5C 800.503,113.167 793.669,128.167 783,141.5C 639.963,300.202 497.296,459.202 355,618.5C 337.017,637.076 315.184,647.409 289.5,649.5C 286.167,649.5 282.833,649.5 279.5,649.5C 257.328,647.495 237.661,639.328 220.5,625C 155.304,560.804 89.8045,496.97 24,433.5C 9.80986,417.791 1.64319,399.458 -0.5,378.5C -0.5,373.833 -0.5,369.167 -0.5,364.5C 7.66398,313.341 37.664,285.675 89.5,281.5C 112.19,282.019 132.19,289.519 149.5,304C 196,351.167 242.5,398.333 289,445.5C 409.706,307.796 530.04,169.796 650,31.5C 664.377,14.2334 682.543,3.56678 704.5,-0.5 Z"/></g>
</svg>
