<?xml version="1.0" encoding="UTF-8"?>
<!DOCTYPE svg PUBLIC "-//W3C//DTD SVG 1.1//EN" "http://www.w3.org/Graphics/SVG/1.1/DTD/svg11.dtd">
<svg xmlns="http://www.w3.org/2000/svg" version="1.1" width="574px" height="567px" style="shape-rendering:geometricPrecision; text-rendering:geometricPrecision; image-rendering:optimizeQuality; fill-rule:evenodd; clip-rule:evenodd" xmlns:xlink="http://www.w3.org/1999/xlink">
<g><path style="opacity:0.992" fill="#0d80ff" d="M 44.5,-0.5 C 46.8333,-0.5 49.1667,-0.5 51.5,-0.5C 61.2953,0.713882 70.2953,4.21388 78.5,10C 151.638,80.8041 224.471,151.971 297,223.5C 356.333,157.5 415.667,91.5 475,25.5C 492.485,3.11387 514.652,-3.71946 541.5,5C 559.825,13.5167 570.492,27.6833 573.5,47.5C 573.5,51.5 573.5,55.5 573.5,59.5C 571.77,69.8308 567.604,79.1641 561,87.5C 503.128,152.37 445.628,217.536 388.5,283C 445.295,348.13 502.461,412.963 560,477.5C 566.954,485.739 571.454,495.073 573.5,505.5C 573.5,510.5 573.5,515.5 573.5,520.5C 563.846,556.006 540.846,570.172 504.5,563C 495.415,559.709 487.581,554.542 481,547.5C 419.99,479.658 358.823,411.992 297.5,344.5C 296.5,345 295.5,345.5 294.5,346C 222.5,416 150.5,486 78.5,556C 70.2953,561.786 61.2953,565.286 51.5,566.5C 49.8333,566.5 48.1667,566.5 46.5,566.5C 22.6362,563.812 7.46953,550.812 1,527.5C -1.39134,514.237 0.941996,501.904 8,490.5C 75.6523,421.347 143.486,352.347 211.5,283.5C 144.847,215.681 78.0141,148.014 11,80.5C 5.22096,72.616 1.38762,63.9493 -0.5,54.5C -0.5,50.5 -0.5,46.5 -0.5,42.5C 4.41685,17.5826 19.4168,3.24925 44.5,-0.5 Z"/></g>
</svg>
