<?xml version="1.0" encoding="UTF-8"?>
<!DOCTYPE svg PUBLIC "-//W3C//DTD SVG 1.1//EN" "http://www.w3.org/Graphics/SVG/1.1/DTD/svg11.dtd">
<svg xmlns="http://www.w3.org/2000/svg" version="1.1" width="1650px" height="1669px" style="shape-rendering:geometricPrecision; text-rendering:geometricPrecision; image-rendering:optimizeQuality; fill-rule:evenodd; clip-rule:evenodd" xmlns:xlink="http://www.w3.org/1999/xlink">
<g><path style="opacity:0.995" fill="#a0a0a0" d="M 516.5,-0.5 C 722.167,-0.5 927.833,-0.5 1133.5,-0.5C 1282.74,8.7117 1408.24,67.7117 1510,176.5C 1594.08,271.033 1640.58,381.699 1649.5,508.5C 1649.5,725.5 1649.5,942.5 1649.5,1159.5C 1636.68,1321 1567.68,1452.5 1442.5,1554C 1350.33,1624.72 1246,1662.89 1129.5,1668.5C 926.5,1668.5 723.5,1668.5 520.5,1668.5C 353.383,1658.7 217.55,1589.03 113,1459.5C 41.7845,1366.04 3.95113,1260.37 -0.5,1142.5C -0.5,936.833 -0.5,731.167 -0.5,525.5C 6.73792,366.874 69.4046,235.04 187.5,130C 282.344,49.9385 392.01,6.43849 516.5,-0.5 Z M 518.5,173.5 C 722.834,173.333 927.167,173.5 1131.5,174C 1256.41,184.718 1352.91,242.218 1421,346.5C 1452.21,397.457 1470.21,452.79 1475,512.5C 1476.14,619.492 1476.64,726.492 1476.5,833.5C 1476.33,931.833 1476.17,1030.17 1476,1128.5C 1473.53,1242.93 1429.03,1337.1 1342.5,1411C 1280.01,1461.72 1208.35,1489.38 1127.5,1494C 925.5,1494.67 723.5,1494.67 521.5,1494C 396.224,1484.31 299.058,1427.48 230,1323.5C 195.454,1268.19 176.787,1207.86 174,1142.5C 173.333,936.5 173.333,730.5 174,524.5C 182.102,403.084 235.269,307.251 333.5,237C 389.512,199.385 451.179,178.218 518.5,173.5 Z"/></g>
</svg>
