<?xml version="1.0" encoding="UTF-8"?>
<!DOCTYPE svg PUBLIC "-//W3C//DTD SVG 1.1//EN" "http://www.w3.org/Graphics/SVG/1.1/DTD/svg11.dtd">
<svg xmlns="http://www.w3.org/2000/svg" version="1.1" width="578px" height="585px" style="shape-rendering:geometricPrecision; text-rendering:geometricPrecision; image-rendering:optimizeQuality; fill-rule:evenodd; clip-rule:evenodd" xmlns:xlink="http://www.w3.org/1999/xlink">
<g><path style="opacity:0.987" fill="#c5c5c5" d="M 185.5,-0.5 C 254.167,-0.5 322.833,-0.5 391.5,-0.5C 468.92,8.11483 525.087,47.1148 560,116.5C 569.141,137.407 574.974,159.073 577.5,181.5C 577.5,255.167 577.5,328.833 577.5,402.5C 566.951,480.542 525.951,536.042 454.5,569C 431.868,577.995 408.535,583.162 384.5,584.5C 320.833,584.5 257.167,584.5 193.5,584.5C 112.097,578.066 53.2638,538.399 17,465.5C 6.88953,442.063 1.05619,417.73 -0.5,392.5C -0.5,325.167 -0.5,257.833 -0.5,190.5C 6.59563,110.598 45.929,52.7648 117.5,17C 139.4,7.69247 162.067,1.85914 185.5,-0.5 Z M 187.5,63.5 C 255.167,63.3333 322.834,63.5 390.5,64C 447.678,71.8559 486.512,102.689 507,156.5C 509.79,165.325 511.79,174.325 513,183.5C 513.667,255.5 513.667,327.5 513,399.5C 504.101,456.393 472.601,494.559 418.5,514C 407.709,517.158 396.709,519.158 385.5,520C 317.814,520.965 250.147,520.632 182.5,519C 137.861,511.947 104.028,489.114 81,450.5C 71.0839,432.418 65.4172,413.084 64,392.5C 63.3333,325.167 63.3333,257.833 64,190.5C 70.1959,134.988 98.6959,95.8217 149.5,73C 161.989,68.5444 174.656,65.3777 187.5,63.5 Z"/></g>
</svg>
