<?xml version="1.0" encoding="UTF-8"?>
<!DOCTYPE svg PUBLIC "-//W3C//DTD SVG 1.1//EN" "http://www.w3.org/Graphics/SVG/1.1/DTD/svg11.dtd">
<svg xmlns="http://www.w3.org/2000/svg" version="1.1" width="1670px" height="1658px" style="shape-rendering:geometricPrecision; text-rendering:geometricPrecision; image-rendering:optimizeQuality; fill-rule:evenodd; clip-rule:evenodd" xmlns:xlink="http://www.w3.org/1999/xlink">
<g><path style="opacity:0.997" fill="#fe0050" d="M 123.5,-0.5 C 134.5,-0.5 145.5,-0.5 156.5,-0.5C 184.452,3.43151 209.452,14.2648 231.5,32C 442.667,238.5 653.833,445 865,651.5C 1042.67,453.833 1220.33,256.167 1398,58.5C 1445.31,5.9602 1502.81,-9.5398 1570.5,12C 1632.58,38.7587 1665.24,86.092 1668.5,154C 1667.54,193.569 1654.04,228.069 1628,257.5C 1461.65,445.685 1295.48,634.018 1129.5,822.5C 1298.2,1015.21 1467.36,1207.54 1637,1399.5C 1656.23,1425.02 1667.06,1453.69 1669.5,1485.5C 1669.5,1490.83 1669.5,1496.17 1669.5,1501.5C 1663.23,1563.93 1631.56,1608.09 1574.5,1634C 1517.54,1654.06 1465.54,1645.4 1418.5,1608C 1413.33,1602.83 1408.17,1597.67 1403,1592.5C 1224.04,1391.87 1044.7,1191.54 865,991.5C 651.737,1200.55 438.57,1409.72 225.5,1619C 204.823,1640.34 179.823,1653.17 150.5,1657.5C 142.5,1657.5 134.5,1657.5 126.5,1657.5C 84.0883,1651.2 52.5883,1629.2 32,1591.5C 3.33344,1535.83 3.33344,1480.17 32,1424.5C 40.1188,1411.27 49.4521,1398.94 60,1387.5C 246.167,1199.33 432.333,1011.17 618.5,823C 423.305,626.806 228.472,430.306 34,233.5C 15.0433,210.796 3.54334,184.796 -0.5,155.5C -0.5,145.5 -0.5,135.5 -0.5,125.5C 11.6168,54.7168 52.9501,12.7168 123.5,-0.5 Z"/></g>
</svg>
